<?xml version="1.0" encoding="UTF-8" standalone="no"?>
<svg
   version="1.1"
   width="1280"
   height="640"
   viewBox="0 0 1280 640"
   xml:space="preserve"
   id="svg8"
   sodipodi:docname="logo.svg"
   inkscape:version="1.4 (e7c3feb1, 2024-10-09)"
   xmlns:inkscape="http://www.inkscape.org/namespaces/inkscape"
   xmlns:sodipodi="http://sodipodi.sourceforge.net/DTD/sodipodi-0.dtd"
   xmlns="http://www.w3.org/2000/svg"
   xmlns:svg="http://www.w3.org/2000/svg"><sodipodi:namedview
   id="namedview8"
   pagecolor="#ffffff"
   bordercolor="#000000"
   borderopacity="0.25"
   inkscape:showpageshadow="2"
   inkscape:pageopacity="0.0"
   inkscape:pagecheckerboard="0"
   inkscape:deskcolor="#d1d1d1"
   inkscape:zoom="0.24188721"
   inkscape:cx="603.58709"
   inkscape:cy="1157.5643"
   inkscape:window-width="1648"
   inkscape:window-height="1051"
   inkscape:window-x="82"
   inkscape:window-y="38"
   inkscape:window-maximized="0"
   inkscape:current-layer="svg8" />
<desc
   id="desc1">Created with Fabric.js 5.3.0</desc>
<defs
   id="defs1">
</defs>
<g
   transform="translate(640,512)"
   id="background-logo">
<rect
   style="opacity:1;fill:#ffffff;fill-opacity:0;fill-rule:nonzero;stroke:none;stroke-width:0;stroke-linecap:butt;stroke-linejoin:miter;stroke-miterlimit:4;stroke-dasharray:none;stroke-dashoffset:0"
   paint-order="stroke"
   x="-640"
   y="-512"
   rx="0"
   ry="0"
   width="1280"
   height="1024"
   id="rect1" />
</g>
<g
   transform="matrix(2.878389,0,0,2.878389,360.6167,320.00001)"
   id="logo-logo">
<g
   paint-order="stroke"
   id="g7">
		<g
   transform="scale(0.45584102)"
   id="g6">
<linearGradient
   id="SVGID_9_79873"
   gradientUnits="userSpaceOnUse"
   x1="198.21434"
   y1="243.33932"
   x2="593.97705"
   y2="458.94766">
<stop
   offset="0%"
   style="stop-color:rgb(242,56,143);stop-opacity: 1"
   id="stop1" />
<stop
   offset="11.14024%"
   style="stop-color:rgb(226,64,147);stop-opacity: 1"
   id="stop2" />
<stop
   offset="32.77248%"
   style="stop-color:rgb(186,83,157);stop-opacity: 1"
   id="stop3" />
<stop
   offset="62.741670000000006%"
   style="stop-color:rgb(120,115,173);stop-opacity: 1"
   id="stop4" />
<stop
   offset="99.59971%"
   style="stop-color:rgb(30,159,196);stop-opacity: 1"
   id="stop5" />
<stop
   offset="100%"
   style="stop-color:rgb(29,159,196);stop-opacity: 1"
   id="stop6" />
</linearGradient>
<path
   style="opacity:1;fill:url(#SVGID_9_79873);fill-rule:nonzero;stroke:none;stroke-width:1;stroke-linecap:butt;stroke-linejoin:miter;stroke-miterlimit:4;stroke-dasharray:none;stroke-dashoffset:0"
   paint-order="stroke"
   transform="translate(-359.99999,-360.00001)"
   d="m 578.71094,219.11945 c -6.41211,-8.78685 -17.01856,-14.03173 -28.37323,-14.03173 h -46.31946 c -14.43875,0 -27.39154,9.14 -32.2309,22.74524 l -43.05136,121.03908 2.88806,1.02801 c 7.16474,2.54389 15.06421,-1.20907 17.61408,-8.37231 L 487.6701,233.48036 c 2.45411,-6.89989 9.02479,-11.53721 16.34964,-11.53721 h 46.4332 c 6.17713,0 11.8006,2.87008 15.04028,7.678 3.06165,4.54307 3.79188,10.12912 2.00367,15.32462 l -83.10837,241.40475 c -2.41071,7.00165 -9.00534,11.70633 -16.40952,11.70633 h -44.31579 c -6.91187,0 -13.1593,-4.09564 -15.91568,-10.43588 L 302.78873,246.2162 c -2.44959,-5.63093 -1.83905,-11.76916 1.67596,-16.83746 3.22775,-4.65529 8.73749,-7.43559 14.73654,-7.43559 h 59.33063 c 7.60471,0 13.7908,-6.18612 13.7908,-13.79081 v -3.06462 h -72.87304 c -11.12421,0 -21.59299,5.06082 -28.00358,13.53641 -7.45504,9.85529 -9.03225,23.00262 -4.11508,34.31389 l 64.04431,147.29935 c 5.32416,12.24951 5.71772,25.89666 1.10883,38.42898 l -17.66049,48.02536 c -2.50049,6.79813 -9.04572,11.36514 -16.28827,11.36514 h -44.71686 c -6.91183,0 -13.1593,-4.09564 -15.91568,-10.43588 L 152.94402,246.2162 c -2.4496,-5.63243 -1.83907,-11.76916 1.67446,-16.83896 3.22623,-4.65529 8.73298,-7.43409 14.73203,-7.43409 h 59.33664 c 7.60469,0 13.7908,-6.18612 13.7908,-13.79081 v -3.06462 h -72.87753 c -11.12273,0 -21.59003,5.05933 -27.99909,13.53491 -7.45655,9.85679 -9.03375,23.00562 -4.11509,34.31539 l 104.95878,241.40329 c 5.43193,12.4964 17.74727,20.57098 31.37346,20.57098 h 44.71686 c 14.2756,0 27.17905,-9.00235 32.10818,-22.40259 l 18.71845,-50.89993 22.92779,52.73154 c 5.43192,12.4964 17.74726,20.57098 31.37345,20.57098 H 467.979 c 14.59586,0 27.59507,-9.27319 32.34613,-23.07297 l 83.1084,-241.40477 c 3.69458,-10.73066 1.97223,-22.14369 -4.72259,-31.3151 z"
   stroke-linecap="round"
   id="path6" />
</g>
</g>
</g>
<g
   transform="matrix(2.1790802,0,0,2.1790802,958.61967,320)"
   id="text-logo">
<g
   paint-order="stroke"
   id="g8">
		<g
   id="text-logo-path-0">
<path
   style="opacity:1;fill:#1d9fc4;fill-rule:nonzero;stroke:none;stroke-width:0;stroke-linecap:butt;stroke-linejoin:miter;stroke-miterlimit:4;stroke-dasharray:none;stroke-dashoffset:0"
   paint-order="stroke"
   transform="translate(-133.32,92.4)"
   d="M 107.18,-184.8 H 32.47 c -4.49,0 -7.92,3.43 -7.92,7.92 v 60.72 c 0,4.49 3.43,7.92 7.92,7.92 h 34.06 c 26.93,0 47.25,20.06 47.25,47.52 0,27.46 -20.32,47.52 -47.25,47.52 -20.07,0 -35.91,-10.82 -43.3,-27.46 -1.05,-2.37 -3.43,-3.96 -6.07,-3.96 -3.7,0 -6.6,2.91 -6.6,6.6 0,1.06 0.26,1.85 0.79,2.64 C 20.86,-14.52 41.71,0 66.53,0 c 33.26,0 60.45,-26.93 60.45,-60.72 0,-33.79 -27.19,-60.72 -60.45,-60.72 H 37.75 v -50.16 h 69.43 c 3.44,0 6.6,-2.9 6.6,-6.6 0,-3.7 -3.16,-6.6 -6.6,-6.6 z m 45.94,166.06 C 163.94,-7.39 179.78,0 198,0 c 31.68,0 58.08,-23.23 58.08,-53.06 0,-35.12 -26.93,-44.62 -48.58,-52.8 -21.12,-7.92 -42.5,-14 -42.5,-34.59 0,-17.69 14.78,-31.15 35.9,-31.15 11.62,0 20.86,4.22 27.72,11.09 1.06,1.32 2.91,2.11 4.76,2.11 3.43,0 6.6,-2.9 6.6,-6.6 0,-1.85 -0.8,-3.43 -2.12,-4.75 -8.97,-9.24 -22.17,-15.05 -36.96,-15.05 -27.19,0 -49.1,19.8 -49.1,44.35 0,30.63 30.36,39.34 50.95,46.73 21.65,8.18 40.13,15.05 40.13,40.66 0,22.96 -19.01,39.86 -44.88,39.86 -15.05,0 -26.93,-5.28 -35.11,-14.52 -1.32,-1.32 -2.91,-2.11 -5.02,-2.11 -3.69,0 -6.6,3.17 -6.6,6.6 0,1.85 0.79,3.43 1.85,4.49 z"
   stroke-linecap="round"
   id="path7" />
</g>
</g>
</g>
</svg>
